<?xml version="1.0" encoding="UTF-8"?>
<svg version="1.1" viewBox="0 -256 1850 1850" xmlns="http://www.w3.org/2000/svg" xmlns:cc="http://creativecommons.org/ns#" xmlns:dc="http://purl.org/dc/elements/1.1/" xmlns:rdf="http://www.w3.org/1999/02/22-rdf-syntax-ns#">
<metadata>
<rdf:RDF>
<cc:Work rdf:about="">
<dc:format>image/svg+xml</dc:format>
<dc:type rdf:resource="http://purl.org/dc/dcmitype/StillImage"/>
</cc:Work>
</rdf:RDF>
</metadata>
<g transform="matrix(1 0 0 -1 30.373 1373.8)">
<path d="m888 352 116 116-152 152-116-116v-56h96v-96h56zm440 720q-16 16-33-1l-350-350q-17-17-1-33t33 1l350 350q17 17 1 33zm80-594v-190q0-119-84.5-203.5t-203.5-84.5h-832q-119 0-203.5 84.5t-84.5 203.5v832q0 119 84.5 203.5t203.5 84.5h832q63 0 117-25 15-7 18-23 3-17-9-29l-49-49q-14-14-32-8-23 6-45 6h-832q-66 0-113-47t-47-113v-832q0-66 47-113t113-47h832q66 0 113 47t47 113v126q0 13 9 22l64 64q15 15 35 7t20-29zm-96 738 288-288-672-672h-288v288zm444-132-92-92-288 288 92 92q28 28 68 28t68-28l152-152q28-28 28-68t-28-68z" fill="#b31111"/>
</g>
</svg>
